<?xml version="1.0" encoding="UTF-8"?>
<!DOCTYPE svg PUBLIC "-//W3C//DTD SVG 1.1//EN" "http://www.w3.org/Graphics/SVG/1.1/DTD/svg11.dtd">
<!-- Creator: CorelDRAW -->
<svg xmlns="http://www.w3.org/2000/svg" xml:space="preserve" width="6.82666in" height="6.82666in" style="shape-rendering:geometricPrecision; text-rendering:geometricPrecision; image-rendering:optimizeQuality; fill-rule:evenodd; clip-rule:evenodd"
viewBox="0 0 6.82666 6.82666"
 xmlns:xlink="http://www.w3.org/1999/xlink">
 <defs>
  <style type="text/css">
   <![CDATA[
    .fil0 {fill:none}
    .fil4 {fill:#212121}
    .fil7 {fill:#273381}
    .fil3 {fill:#303F9F}
    .fil5 {fill:#EEEEEE}
    .fil6 {fill:#9E144A;fill-rule:nonzero}
    .fil1 {fill:#9E9D24;fill-rule:nonzero}
    .fil2 {fill:#C2185B;fill-rule:nonzero}
   ]]>
  </style>
 </defs>
 <g id="Layer_x0020_1">
  <metadata id="CorelCorpID_0Corel-Layer"/>
  <g id="_312129432">
   <rect id="_312128760" class="fil0" width="6.82666" height="6.82666"/>
   <rect id="_312129456" class="fil0" x="0.853331" y="0.853331" width="5.12" height="5.12"/>
  </g>
  <polygon class="fil1" points="4.44846,2.82532 5.03006,2.82532 5.2414,2.07154 5.44907,2.1298 5.21559,2.9625 5.19346,3.04144 5.11176,3.04144 4.44846,3.04144 "/>
  <polygon class="fil1" points="2.99323,4.26667 2.99323,5.63478 2.77711,5.63478 2.77711,4.26667 "/>
  <polygon class="fil1" points="4.02267,4.53848 4.02267,5.63478 3.80655,5.63478 3.80655,4.53848 "/>
  <path class="fil2" d="M2.88517 5.97333l-0.270138 0 -0.108059 0 0 -0.108059c0,-0.104421 0.0423386,-0.198972 0.11078,-0.267413 0.0684488,-0.0684488 0.162996,-0.110783 0.267417,-0.110783 0.104425,0 0.198976,0.0423346 0.267417,0.110783 0.0684449,0.068437 0.11078,0.162988 0.11078,0.267413l0 0.108059 -0.108059 0 -0.270138 0z"/>
  <path class="fil2" d="M3.91461 5.97333l-0.270138 0 -0.108059 0 0 -0.108059c0,-0.104425 0.0423346,-0.198976 0.110783,-0.267413 0.068437,-0.0684488 0.162988,-0.110783 0.267413,-0.110783 0.104421,0 0.198972,0.0423346 0.267417,0.110783 0.0684449,0.0684409 0.11078,0.162992 0.11078,0.267413l0 0.108059 -0.108059 0 -0.270138 0z"/>
  <path class="fil2" d="M5.15228 1.7089l0.26863 0.0284921 -3.93701e-006 4.33071e-005 0.268213 0.0284449 0.107606 0.0114134 -0.0113701 0.107197c-0.0110039,0.103736 -0.063126,0.193291 -0.138504,0.254209 -0.0750787,0.060685 -0.173287,0.0927205 -0.276807,0.081748l-0.000425197 0c-0.103732,-0.011 -0.193287,-0.0631299 -0.254205,-0.138508 -0.0607047,-0.0751063 -0.092752,-0.173461 -0.081748,-0.277224l0.0113701 -0.107185 0.107244 0.0113701z"/>
  <polygon class="fil1" points="2.35633,2.93339 1.77474,2.93339 1.5634,3.68716 1.35573,3.62891 1.5892,2.7962 1.61134,2.71727 1.69304,2.71727 2.35633,2.71727 "/>
  <path class="fil2" d="M1.68154 4.0082l-0.269933 0.0105197 -0.269933 0.0105197 -0.107228 0.00417717 -0.00420866 -0.108012c-0.00404331,-0.103827 0.0345866,-0.199705 0.100327,-0.270772 0.0657283,-0.071063 0.158563,-0.117047 0.262921,-0.121118 0.103827,-0.00404331 0.199705,0.0345866 0.270772,0.100327 0.0710591,0.0657244 0.117051,0.158563 0.121118,0.262921l0.00418504 0.107224 -0.10802 0.0042126z"/>
  <g id="_312127248">
   <path id="_312128112" class="fil2" d="M3.39989 0.853331c0.0742756,0 0.142213,0.0266969 0.192012,0.0698543 0.0528425,0.0457992 0.0855315,0.109764 0.0855315,0.18102 0,0.0215118 -0.00327165,0.0430079 -0.00941732,0.0640945 -0.00623622,0.0213937 -0.015185,0.0412559 -0.0264409,0.0592638l-0.0228976 0.036622 -0.0427795 0 -0.352012 0 -0.0427756 0 -0.0229016 -0.036622c-0.0112598,-0.0180039 -0.0202047,-0.0378622 -0.0264449,-0.0592598 -0.00614961,-0.0210906 -0.00942126,-0.0425906 -0.00942126,-0.0640984 0,-0.0712559 0.032689,-0.13522 0.0855354,-0.18102 0.0497953,-0.0431575 0.11774,-0.0698543 0.192012,-0.0698543z"/>
   <path id="_312128496" class="fil3" d="M2.75777 1.12914l1.28424 0c0.0573346,0 0.109579,0.0232992 0.147535,0.0608307 0.0385276,0.0380787 0.0624449,0.0904803 0.0624449,0.14798l0 0.846346c0,0.0575039 -0.0239173,0.109894 -0.0624449,0.14798 -0.0379685,0.0375315 -0.0902008,0.0608307 -0.147535,0.0608307l-1.28424 0c-0.0573346,0 -0.109567,-0.0232992 -0.147535,-0.0608307 -0.0385236,-0.0380866 -0.0624409,-0.0904764 -0.0624409,-0.14798l0 -0.846346c0,-0.0574961 0.0239213,-0.109894 0.062437,-0.147984 0.0379685,-0.0375236 0.0902087,-0.0608268 0.147539,-0.0608268z"/>
   <rect id="_312128664" class="fil3" x="2.33168" y="2.52453" width="2.13641" height="2.02969" rx="0.0641614" ry="0.0641614"/>
   <path id="_312127536" class="fil4" d="M3.2603 1.69074c0,0.087 -0.0705591,0.157559 -0.157559,0.157559 -0.0869961,0 -0.157563,-0.0705591 -0.157563,-0.157559 0,-0.087 0.070563,-0.157563 0.157563,-0.157563 0.087,0 0.157559,0.0705669 0.157559,0.157563zm0.537122 0.121453c-0.0669606,0.0553386 -0.166484,0.0458819 -0.221823,-0.0210748 -0.0553465,-0.0669646 -0.0458858,-0.166496 0.0210787,-0.221835 0.0669606,-0.0553386 0.166484,-0.0458819 0.221827,0.0210827 0.0553386,0.0669606 0.0458819,0.166484 -0.0210827,0.221827z"/>
   <path id="_312127296" class="fil5" d="M3.20696 1.69074c0,-0.057563 -0.0466654,-0.104232 -0.104228,-0.104232 -0.057563,0 -0.104232,0.0466693 -0.104232,0.104232 0,0.057563 0.0466693,0.104228 0.104232,0.104228 0.057563,0 0.104228,-0.0466654 0.104228,-0.104228zm0.55648 0.0803425c0.0443701,-0.0366732 0.0506142,-0.10237 0.0139449,-0.146744 -0.0366732,-0.0443701 -0.10237,-0.0506102 -0.146744,-0.0139449 -0.0443701,0.0366732 -0.0506142,0.102374 -0.0139449,0.146748 0.0366732,0.0443661 0.10237,0.0506102 0.146744,0.0139409z"/>
  </g>
  <path class="fil6" d="M3.41333 0.853626c0.0690079,0.00300787 0.131787,0.0290197 0.178567,0.0695591 0.0528425,0.0457992 0.0855315,0.109764 0.0855315,0.18102 0,0.0215118 -0.00327165,0.0430079 -0.00941732,0.0640945 -0.00623622,0.0213937 -0.015185,0.0412559 -0.0264409,0.0592638l-0.0228976 0.036622 -0.0427795 0 -0.162563 0 0 -0.410559z"/>
  <path class="fil7" d="M3.41333 1.12914l0.628673 0c0.0573346,0 0.109579,0.0232992 0.147535,0.0608307 0.0385276,0.0380787 0.0624449,0.0904803 0.0624449,0.14798l0 0.846346c0,0.0575039 -0.0239173,0.109894 -0.0624449,0.14798 -0.0379685,0.0375315 -0.0902008,0.0608307 -0.147535,0.0608307l-0.628673 0 0 -1.26397z"/>
  <path class="fil7" d="M3.41333 2.52454l0.990606 0c0.0352835,0 0.0641535,0.0288661 0.0641535,0.0641535l0 1.90138c0,0.0352835 -0.0288701,0.0641575 -0.0641535,0.0641575l-0.990606 0 0 -2.02969z"/>
  <path class="fil4" d="M3.79742 1.81219c-0.0669606,0.0553386 -0.166484,0.0458819 -0.221823,-0.0210748 -0.0553465,-0.0669646 -0.0458858,-0.166496 0.0210787,-0.221835 0.0669606,-0.0553386 0.166484,-0.0458819 0.221827,0.0210827 0.0553386,0.0669606 0.0458819,0.166484 -0.0210827,0.221827z"/>
  <path class="fil5" d="M3.76344 1.77108c0.0443701,-0.0366732 0.0506142,-0.10237 0.0139449,-0.146744 -0.0366732,-0.0443701 -0.10237,-0.0506102 -0.146744,-0.0139449 -0.0443701,0.0366732 -0.0506142,0.102374 -0.0139449,0.146748 0.0366732,0.0443661 0.10237,0.0506102 0.146744,0.0139409z"/>
 </g>
 <rect class="fil0" width="6.82666" height="6.82666"/>
</svg>
